<svg width="162" height="37" viewBox="0 0 162 37" fill="none" xmlns="http://www.w3.org/2000/svg">
<path d="M18.684 10.728V15.66H8.388V20.988H16.092V25.776H8.388V36H2.232V10.728H18.684ZM25.0155 13.824C23.9355 13.824 23.0475 13.512 22.3515 12.888C21.6795 12.24 21.3435 11.448 21.3435 10.512C21.3435 9.552 21.6795 8.76 22.3515 8.136C23.0475 7.488 23.9355 7.164 25.0155 7.164C26.0715 7.164 26.9355 7.488 27.6075 8.136C28.3035 8.76 28.6515 9.552 28.6515 10.512C28.6515 11.448 28.3035 12.24 27.6075 12.888C26.9355 13.512 26.0715 13.824 25.0155 13.824ZM28.0755 15.912V36H21.9195V15.912H28.0755ZM43.7327 30.78V36H40.6007C38.3687 36 36.6287 35.46 35.3807 34.38C34.1327 33.276 33.5087 31.488 33.5087 29.016V21.024H31.0607V15.912H33.5087V11.016H39.6647V15.912H43.6967V21.024H39.6647V29.088C39.6647 29.688 39.8087 30.12 40.0967 30.384C40.3847 30.648 40.8647 30.78 41.5367 30.78H43.7327ZM59.4017 15.696C61.7537 15.696 63.6257 16.464 65.0177 18C66.4337 19.512 67.1417 21.6 67.1417 24.264V36H61.0217V25.092C61.0217 23.748 60.6737 22.704 59.9777 21.96C59.2817 21.216 58.3457 20.844 57.1697 20.844C55.9937 20.844 55.0577 21.216 54.3617 21.96C53.6657 22.704 53.3177 23.748 53.3177 25.092V36H47.1617V15.912H53.3177V18.576C53.9417 17.688 54.7817 16.992 55.8377 16.488C56.8937 15.96 58.0817 15.696 59.4017 15.696ZM90.3555 25.632C90.3555 26.208 90.3195 26.808 90.2475 27.432H76.3155C76.4115 28.68 76.8075 29.64 77.5035 30.312C78.2235 30.96 79.0995 31.284 80.1315 31.284C81.6675 31.284 82.7355 30.636 83.3355 29.34H89.8875C89.5515 30.66 88.9395 31.848 88.0515 32.904C87.1875 33.96 86.0955 34.788 84.7755 35.388C83.4555 35.988 81.9795 36.288 80.3475 36.288C78.3795 36.288 76.6275 35.868 75.0915 35.028C73.5555 34.188 72.3555 32.988 71.4915 31.428C70.6275 29.868 70.1955 28.044 70.1955 25.956C70.1955 23.868 70.6155 22.044 71.4555 20.484C72.3195 18.924 73.5195 17.724 75.0555 16.884C76.5915 16.044 78.3555 15.624 80.3475 15.624C82.2915 15.624 84.0195 16.032 85.5315 16.848C87.0435 17.664 88.2195 18.828 89.0595 20.34C89.9235 21.852 90.3555 23.616 90.3555 25.632ZM84.0555 24.012C84.0555 22.956 83.6955 22.116 82.9755 21.492C82.2555 20.868 81.3555 20.556 80.2755 20.556C79.2435 20.556 78.3675 20.856 77.6475 21.456C76.9515 22.056 76.5195 22.908 76.3515 24.012H84.0555ZM101.775 36.288C100.023 36.288 98.4631 35.988 97.0951 35.388C95.7271 34.788 94.6471 33.972 93.8551 32.94C93.0631 31.884 92.6191 30.708 92.5231 29.412H98.6071C98.6791 30.108 99.0031 30.672 99.5791 31.104C100.155 31.536 100.863 31.752 101.703 31.752C102.471 31.752 103.059 31.608 103.467 31.32C103.899 31.008 104.115 30.612 104.115 30.132C104.115 29.556 103.815 29.136 103.215 28.872C102.615 28.584 101.643 28.272 100.299 27.936C98.8591 27.6 97.6591 27.252 96.6991 26.892C95.7391 26.508 94.9111 25.92 94.2151 25.128C93.5191 24.312 93.1711 23.22 93.1711 21.852C93.1711 20.7 93.4831 19.656 94.1071 18.72C94.7551 17.76 95.6911 17.004 96.9151 16.452C98.1631 15.9 99.6391 15.624 101.343 15.624C103.863 15.624 105.843 16.248 107.283 17.496C108.747 18.744 109.587 20.4 109.803 22.464H104.115C104.019 21.768 103.707 21.216 103.179 20.808C102.675 20.4 102.003 20.196 101.163 20.196C100.443 20.196 99.8911 20.34 99.5071 20.628C99.1231 20.892 98.9311 21.264 98.9311 21.744C98.9311 22.32 99.2311 22.752 99.8311 23.04C100.455 23.328 101.415 23.616 102.711 23.904C104.199 24.288 105.411 24.672 106.347 25.056C107.283 25.416 108.099 26.016 108.795 26.856C109.515 27.672 109.887 28.776 109.911 30.168C109.911 31.344 109.575 32.4 108.903 33.336C108.255 34.248 107.307 34.968 106.059 35.496C104.835 36.024 103.407 36.288 101.775 36.288ZM124.873 30.78V36H121.741C119.509 36 117.769 35.46 116.521 34.38C115.273 33.276 114.649 31.488 114.649 29.016V21.024H112.201V15.912H114.649V11.016H120.805V15.912H124.837V21.024H120.805V29.088C120.805 29.688 120.949 30.12 121.237 30.384C121.525 30.648 122.005 30.78 122.677 30.78H124.873Z" fill="#1D1617"/>
<path d="M150.67 36L143.52 25.25L137.22 36H127.52L138.77 18.15L127.27 0.899999H137.22L144.27 11.5L150.47 0.899999H160.17L149.02 18.6L160.62 36H150.67Z" fill="white"/>
</svg>
