<svg width="317" height="18" viewBox="0 0 317 18" fill="none" xmlns="http://www.w3.org/2000/svg">
<path d="M160.42 8.63636C160.42 5.875 158.801 4.15341 156.568 4.15341C154.335 4.15341 152.716 5.875 152.716 8.63636C152.716 11.3977 154.335 13.1193 156.568 13.1193C158.801 13.1193 160.42 11.3977 160.42 8.63636ZM159.398 8.63636C159.398 10.9034 158.153 12.1307 156.568 12.1307C154.983 12.1307 153.739 10.9034 153.739 8.63636C153.739 6.36932 154.983 5.14205 156.568 5.14205C158.153 5.14205 159.398 6.36932 159.398 8.63636ZM162.061 13H163.067V8.85795C163.067 7.97159 163.766 7.32386 164.72 7.32386C164.989 7.32386 165.266 7.375 165.334 7.39205V6.36932C165.219 6.3608 164.955 6.35227 164.805 6.35227C164.021 6.35227 163.339 6.79545 163.101 7.44318H163.033V6.45455H162.061V13Z" fill="#1D1617"/>
<path d="M1 9L142 8.99999" stroke="#DDDADA" stroke-linecap="round" stroke-linejoin="round"/>
<path d="M176 9L316 9.00001" stroke="#DDDADA" stroke-linecap="round" stroke-linejoin="round"/>
</svg>
